<?xml version="1.0" encoding="utf-8"?>
<!-- Generator: Adobe Illustrator 22.0.1, SVG Export Plug-In . SVG Version: 6.00 Build 0)  -->
<svg version="1.1" id="Capa_1" xmlns="http://www.w3.org/2000/svg" xmlns:xlink="http://www.w3.org/1999/xlink" x="0px" y="0px"
	 viewBox="0 0 358.9 124.9" style="enable-background:new 0 0 358.9 124.9;" xml:space="preserve">
<style type="text/css">
	.st0{clip-path:url(#SVGID_2_);}
	.st1{fill:url(#SVGID_3_);}
	.st2{fill:url(#SVGID_4_);}
	.st3{fill:url(#SVGID_5_);}
	.st4{fill:url(#SVGID_6_);}
	.st5{fill:#F9F9F9;}
	.st6{fill:#FAFAFA;}
	.st7{fill:#717EBC;}
	.st8{fill:#343970;}
	
	.st9{opacity:0.41;fill:#384D98;enable-background:new    ;}
	.st10{fill:#FFFFFF;}
	.st11{fill:url(#SVGID_7_);}
	.st12{fill:#384D98;}
	.st13{fill:url(#SVGID_8_);}
	.st14{opacity:0.41;}
	.st15{fill:url(#SVGID_9_);}
	.st16{fill:url(#SVGID_10_);}
	.st17{fill:url(#SVGID_11_);}
	.st18{fill:url(#SVGID_12_);}
	.st19{fill:url(#SVGID_13_);}
	.st20{fill:none;}
	.st21{fill:#DB1D2E;}
	.st22{enable-background:new    ;}
</style>
<g>
	<g>
		<g>
			<defs>
				<rect id="SVGID_1_" x="-0.9" y="-1" width="360" height="126"/>
			</defs>
			<clipPath id="SVGID_2_">
				<use xlink:href="#SVGID_1_"  style="overflow:visible;"/>
			</clipPath>
			<g class="st0">

					<linearGradient id="SVGID_3_" gradientUnits="userSpaceOnUse" x1="-24.9" y1="61.05" x2="361.5" y2="61.05" gradientTransform="matrix(1 0 0 -1 0 124)">
					<stop  offset="0" style="stop-color:#FFFFFF"/>
					<stop  offset="5.859911e-02" style="stop-color:#FDFDFE"/>
					<stop  offset="1" style="stop-color:#E4E6F3"/>
				</linearGradient>
				<rect x="-24.9" class="st1" width="386.4" height="125.9"/>

					<linearGradient id="SVGID_4_" gradientUnits="userSpaceOnUse" x1="102.1821" y1="-3.9986" x2="110.2689" y2="63.0067" gradientTransform="matrix(1 0 0 -1 0 124)">
					<stop  offset="0" style="stop-color:#FFFFFF"/>
					<stop  offset="5.859911e-02" style="stop-color:#FDFDFE"/>
					<stop  offset="1" style="stop-color:#E4E6F3"/>
				</linearGradient>
				<polygon class="st2" points="170.1,88.2 170.1,68.4 162,68.4 162,76.2 150.2,76.2 150.2,44.6 144.5,44.6 144.5,22.2 127.4,22.2
					127.4,30.8 121,30.8 121,44.6 114.4,44.6 114.4,30.7 112.1,30.7 112.1,44.6 104.8,44.6 104.8,24.9 71.4,24.9 71.4,54.5 64,54.5
					64,47 47.8,47 47.8,59.4 38.6,59.4 38.6,68.3 36,68.3 36,106.2 150.2,106.2 150.2,106.2 162,106.2 162,106.2 178.2,106.2
					178.2,88.2 				"/>

					<linearGradient id="SVGID_5_" gradientUnits="userSpaceOnUse" x1="-6.9953" y1="2.7011" x2="-3.5295" y2="59.0201" gradientTransform="matrix(1 0 0 -1 0 124)">
					<stop  offset="0" style="stop-color:#FFFFFF"/>
					<stop  offset="5.859911e-02" style="stop-color:#FDFDFE"/>
					<stop  offset="1" style="stop-color:#E4E6F3"/>
				</linearGradient>
				<polygon class="st3" points="58.1,88.2 58.1,68.4 50,68.4 50,76.2 38.2,76.2 38.2,44.6 32.5,44.6 32.5,22.2 15.4,22.2
					15.4,30.8 9,30.8 9,44.6 2.4,44.6 2.4,30.7 0.1,30.7 0.1,44.6 -7.2,44.6 -7.2,24.9 -40.6,24.9 -40.6,54.5 -48,54.5 -48,47
					-64.2,47 -64.2,59.4 -73.4,59.4 -73.4,68.3 -76,68.3 -76,106.2 38.2,106.2 38.2,106.2 50,106.2 50,106.2 66.2,106.2 66.2,88.2
									"/>

					<linearGradient id="SVGID_6_" gradientUnits="userSpaceOnUse" x1="298.55" y1="35.4057" x2="298.55" y2="89.9892" gradientTransform="matrix(1 0 0 -1 0 124)">
					<stop  offset="0" style="stop-color:#FFFFFF"/>
					<stop  offset="5.859911e-02" style="stop-color:#FDFDFE"/>
					<stop  offset="1" style="stop-color:#E4E6F3"/>
				</linearGradient>
				<polygon class="st4" points="360.8,44.6 355.8,44.6 355.8,22.2 338.7,22.2 338.7,30.8 332.3,30.8 332.3,44.6 325.7,44.6
					325.7,30.7 323.4,30.7 323.4,44.6 316.1,44.6 316.1,24.9 282.8,24.9 282.8,54.5 275.3,54.5 275.3,47 259.1,47 259.1,59.4
					249.9,59.4 249.9,68.3 236.3,68.3 236.3,106.2 360.8,106.2 				"/>
				<path class="st5" d="M302.4,17.6c-0.7,0.5-1.7,0.7-2.5,0.9c-2.4,0.5-4.9,0.6-7.4,0.6c-2.6,0-5.1,0-7.7,0c-2.7,0-5.3,0-8,0.1
					c-2.3,0.1-4.7,0.3-6.9,0.7c-1,0.2-1.9,0.4-2.8,0.8c-0.8,0.4-1.6,1-1.8,1.7c-0.3,1.3,2.1,1.9,3.2,2.1c2.4,0.6,4.8,0.9,7.3,1.1
					c5.1,0.5,10.2,0.5,15.3,0.5c5.4,0,10.9-0.1,16.3-0.4c5.5-0.2,55.1,1.6,60.6,1.4c0.6,0,1.4-3.2,1.9-3.2L368,12.4
					c-5,0-52.5-0.5-57.5,0c-1.6,0.1-3.1,0.4-4.6,0.9c-0.7,0.2-1.4,0.5-1.9,0.9s-1,1-0.8,1.5c0.1,0.4,0.3,0.7,0.1,1.1
					C303.1,17.1,302.8,17.4,302.4,17.6z"/>
				<circle class="st6" cx="55.8" cy="13.6" r="4.9"/>
				<rect x="171.5" y="110.1" class="st7" width="22.5" height="15.6"/>
				<g>
					<rect x="-0.8" y="97.1" class="st7" width="360" height="28"/>
					<g>
						<g>
							<g>
								<rect x="166.9" y="37" class="st8" width="82.7" height="24.2"/>
								<path class="st9" d="M196.7,37h-29.8v24.4h54.3C213,53.2,204.9,45.1,196.7,37z"/>
							</g>
							<rect x="80.2" y="106.2" class="st9" width="222" height="5"/>
							<polygon class="st10" points="173.2,59.2 130.1,59.2 130.1,107.9 173.2,107.9 216.3,107.9 216.3,59.2 							"/>
							<rect x="130.1" y="59.2" class="st9" width="82.4" height="48.7"/>
							<rect x="173.2" y="59.2" class="st7" width="39.3" height="48.7"/>
							<g>
								<rect x="91.4" y="59.3" class="st10" width="81.8" height="48.9"/>
							</g>
							<g>
								<g>

										<linearGradient id="SVGID_7_" gradientUnits="userSpaceOnUse" x1="97.2" y1="46.9" x2="121" y2="46.9" gradientTransform="matrix(1 0 0 -1 0 124)">
										<stop  offset="0" style="stop-color:#FFFFFF"/>
										<stop  offset="0.6227" style="stop-color:#FAD7CD"/>
										<stop  offset="1" style="stop-color:#F7C3B4"/>
									</linearGradient>
									<rect x="97.2" y="67.4" class="st11" width="23.8" height="19.4"/>
								</g>
								<rect x="99.2" y="69.2" class="st9" width="19.9" height="16.2"/>
								<rect x="99.2" y="69.2" class="st12" width="19.9" height="16.2"/>
								<rect x="101.2" y="71.2" class="st10" width="17.9" height="14.2"/>
								<rect x="101.2" y="71.2" class="st7" width="17.9" height="14.2"/>

									<linearGradient id="SVGID_8_" gradientUnits="userSpaceOnUse" x1="109.9141" y1="46.9876" x2="97.6331" y2="29.1428" gradientTransform="matrix(1 0 0 -1 0 124)">
									<stop  offset="0" style="stop-color:#FFFFFF"/>
									<stop  offset="0.6227" style="stop-color:#FAD7CD"/>
									<stop  offset="1" style="stop-color:#F7C3B4"/>
								</linearGradient>
								<rect x="108.2" y="69.2" class="st13" width="2" height="17.7"/>
							</g>
							<g class="st14">
								<rect x="91.4" y="56.3" class="st12" width="81.8" height="14.9"/>
							</g>
							<g>
								<rect x="148.2" y="59.2" class="st10" width="10" height="49"/>
								<rect x="153.2" y="59.2" class="st9" width="5" height="49"/>
							</g>
							<rect x="173.2" y="60.2" class="st10" width="39.3" height="47.7"/>
							<rect x="173.2" y="59.2" class="st9" width="39.3" height="48.7"/>
							<g>
								<polygon class="st8" points="153.8,14.4 148.8,14.4 138.2,14.4 133.2,14.4 184.6,59.5 189.6,59.5 200.4,59.5 205.4,59.5
																	"/>

									<linearGradient id="SVGID_9_" gradientUnits="userSpaceOnUse" x1="110.2206" y1="85.5397" x2="169.2076" y2="56.0462" gradientTransform="matrix(1 0 0 -1 0 124)">
									<stop  offset="0" style="stop-color:#FFFFFF"/>
									<stop  offset="0.6227" style="stop-color:#FAD7CD"/>
									<stop  offset="1" style="stop-color:#F7C3B4"/>
								</linearGradient>
								<polygon class="st15" points="133,14.4 81.4,59.5 184.6,59.5 								"/>
							</g>
							<rect x="81.2" y="59.2" class="st10" width="120" height="3"/>
							<rect x="185.2" y="59.2" class="st9" width="16" height="3"/>
							<g>
								<rect x="216.4" y="72.6" class="st10" width="82.6" height="35.3"/>
								<rect x="216.4" y="72.6" class="st9" width="82.6" height="35.3"/>
								<polygon class="st8" points="257.3,30.9 248.8,30.9 242.4,30.9 233.9,30.9 283.1,74 291.6,74 298.1,74 306.7,74 								"/>
								<rect x="193.6" y="72.6" class="st10" width="82.6" height="35.3"/>
								<rect x="193.6" y="72.6" class="st9" width="82.6" height="15.9"/>

									<linearGradient id="SVGID_10_" gradientUnits="userSpaceOnUse" x1="184.3" y1="71.55" x2="283.1" y2="71.55" gradientTransform="matrix(1 0 0 -1 0 124)">
									<stop  offset="0" style="stop-color:#FFFFFF"/>
									<stop  offset="0.6227" style="stop-color:#FAD7CD"/>
									<stop  offset="1" style="stop-color:#F7C3B4"/>
								</linearGradient>
								<polygon class="st16" points="233.7,30.9 184.3,74 283.1,74 								"/>
								<path class="st9" d="M219.9,97.7h-14.8V87c0-4.1,3.3-7.4,7.4-7.4l0,0c4.1,0,7.4,3.3,7.4,7.4L219.9,97.7L219.9,97.7z"/>
								<path class="st9" d="M244.4,97.7h-14.8V87c0-4.1,3.3-7.4,7.4-7.4l0,0c4.1,0,7.4,3.3,7.4,7.4L244.4,97.7L244.4,97.7z"/>
								<path class="st9" d="M269.7,97.7h-14.8V87c0-4.1,3.3-7.4,7.4-7.4l0,0c4.1,0,7.4,3.3,7.4,7.4V97.7z"/>
								<rect x="286.1" y="82" class="st8" width="8.2" height="12.1"/>
							</g>
							<g>
								<ellipse class="st8" cx="89.6" cy="96.2" rx="5.6" ry="12"/>
								<path class="st8" d="M162.4,108.2c0-4.9,3.9-8.8,8.8-8.8c4.9,0,8.8,3.9,8.8,8.8"/>
								<path class="st9" d="M174.6,108.2h5.5c0-4.9-3.9-8.8-8.8-8.8c-0.2,0-0.5,0-0.7,0C172.8,102,174.3,105.1,174.6,108.2z"/>
								<path class="st8" d="M191.1,108.2c0-4.9,3.9-8.8,8.8-8.8c4.9,0,8.8,3.9,8.8,8.8"/>
								<path class="st9" d="M202.6,108.2h6c0-4.9-3.9-8.8-8.8-8.8c-0.6,0-1.2,0.1-1.7,0.2C200.2,102.2,201.9,105.1,202.6,108.2z"/>
							</g>
							<rect x="183.2" y="73.2" class="st10" width="124" height="3"/>
							<rect x="283.1" y="73.2" class="st9" width="24.1" height="3"/>
							<g>
								<g>

										<linearGradient id="SVGID_11_" gradientUnits="userSpaceOnUse" x1="150.1564" y1="52.9605" x2="126.3631" y2="18.8471" gradientTransform="matrix(1 0 0 -1 0 124)">
										<stop  offset="0" style="stop-color:#FFFFFF"/>
										<stop  offset="0.6227" style="stop-color:#FAD7CD"/>
										<stop  offset="1" style="stop-color:#F7C3B4"/>
									</linearGradient>
									<rect x="126.2" y="78.2" class="st17" width="17" height="30"/>
								</g>

									<linearGradient id="SVGID_12_" gradientUnits="userSpaceOnUse" x1="146.1306" y1="45.9296" x2="130.1866" y2="36.6039" gradientTransform="matrix(1 0 0 -1 0 124)">
									<stop  offset="0" style="stop-color:#FFFFFF"/>
									<stop  offset="0.6227" style="stop-color:#FAD7CD"/>
									<stop  offset="1" style="stop-color:#F7C3B4"/>
								</linearGradient>
								<path class="st18" d="M129.7,86.2c0-2.8,2.2-5,5-5s5,2.2,5,5"/>
								<g>

										<linearGradient id="SVGID_13_" gradientUnits="userSpaceOnUse" x1="146.6187" y1="38.3059" x2="139.575" y2="31.9494" gradientTransform="matrix(1 0 0 -1 0 124)">
										<stop  offset="0" style="stop-color:#FFFFFF"/>
										<stop  offset="0.6227" style="stop-color:#FAD7CD"/>
										<stop  offset="1" style="stop-color:#F7C3B4"/>
									</linearGradient>
									<path class="st19" d="M140.2,104.7h-11V88.2h11V104.7z M130.2,103.7h9V89.2h-9V103.7z"/>
								</g>
								<circle class="st7" cx="129.2" cy="94.2" r="1"/>
							</g>
						</g>
						<g>
							<line class="st20" x1="60.8" y1="107.7" x2="74.8" y2="107.7"/>
						</g>
					</g>
				</g>
				<g>
					<rect x="44.7" y="66.2" class="st10" width="2.4" height="7.4"/>
					<rect x="63.9" y="66.2" class="st10" width="2.4" height="7.4"/>
					<path class="st10" d="M69.3,102.2H43c-2.9,0-5.3-2.4-5.3-5.3V78.6c0-2.9,2.4-5.3,5.3-5.3h26.3c2.9,0,5.3,2.4,5.3,5.3v18.3
						C74.6,99.8,72.2,102.2,69.3,102.2z"/>
					<path class="st21" d="M37.7,93.8v4c0,2.4,2,4.4,4.4,4.4h28.1c2.4,0,4.4-2,4.4-4.4v-4H37.7z"/>
					<path class="st21" d="M74.6,79.8v-2.1c0-2.4-2-4.4-4.4-4.4H42.1c-2.4,0-4.4,2-4.4,4.4v2.1H74.6z"/>
					<path class="st10" d="M34.7,116H32V63.5c0-0.8,0.6-1.4,1.4-1.4l0,0c0.8,0,1.4,0.6,1.4,1.4V116H34.7z"/>
					<path class="st10" d="M75.7,66.9H30.6c-0.8,0-1.4-0.6-1.4-1.4l0,0c0-0.8,0.6-1.4,1.4-1.4h45.1c0.8,0,1.4,0.6,1.4,1.4l0,0
						C77.1,66.3,76.4,66.9,75.7,66.9z"/>
					<g class="st22">
						<path class="st8" d="M43.4,89.4c-0.2-0.1-0.4-0.2-0.6-0.4c-0.1-0.2-0.2-0.4-0.2-0.7h1.1c0,0.2,0.1,0.3,0.2,0.4
							c0.1,0.1,0.2,0.1,0.4,0.1c0.1,0,0.3,0,0.4-0.1c0.1-0.1,0.1-0.2,0.1-0.3c0-0.1,0-0.2-0.1-0.3s-0.2-0.1-0.3-0.2
							c-0.1,0-0.2-0.1-0.4-0.1c-0.3-0.1-0.5-0.2-0.7-0.2c-0.2-0.1-0.3-0.2-0.4-0.4c-0.1-0.2-0.2-0.4-0.2-0.6c0-0.4,0.1-0.7,0.4-0.9
							c0.3-0.2,0.6-0.3,1.1-0.3c0.5,0,0.8,0.1,1.1,0.3c0.3,0.2,0.4,0.5,0.4,0.9h-1.1c0-0.1-0.1-0.2-0.1-0.3
							c-0.1-0.1-0.2-0.1-0.3-0.1c-0.1,0-0.2,0-0.3,0.1c-0.1,0.1-0.1,0.2-0.1,0.3c0,0.1,0.1,0.2,0.2,0.3c0.1,0.1,0.3,0.2,0.6,0.2
							c0.3,0.1,0.5,0.2,0.7,0.3c0.2,0.1,0.3,0.2,0.4,0.4c0.1,0.2,0.2,0.4,0.2,0.6c0,0.2-0.1,0.5-0.2,0.6c-0.1,0.2-0.3,0.3-0.5,0.5
							s-0.5,0.2-0.8,0.2C43.9,89.5,43.7,89.5,43.4,89.4z"/>
						<path class="st8" d="M47.4,86.1V87h1.4v0.8h-1.4v0.9h1.5v0.8h-2.5v-4.2h2.5v0.8H47.4z"/>
						<path class="st8" d="M54.7,85.3l-1.5,4.2H52l-1.5-4.2h1.1l1,3.1l1-3.1H54.7z"/>
						<path class="st8" d="M56.1,86.1V87h1.4v0.8h-1.4v0.9h1.5v0.8h-2.5v-4.2h2.5v0.8H56.1z"/>
						<path class="st8" d="M62,89.5h-1l-1.7-2.6v2.6h-1v-4.2h1l1.7,2.6v-2.6h1V89.5z"/>
						<path class="st8" d="M65.5,85.6c0.3,0.2,0.6,0.4,0.8,0.7c0.2,0.3,0.3,0.7,0.3,1.1c0,0.4-0.1,0.8-0.3,1.1
							c-0.2,0.3-0.4,0.6-0.8,0.7c-0.3,0.2-0.7,0.3-1.1,0.3h-1.6v-4.2h1.6C64.8,85.3,65.2,85.4,65.5,85.6z M65.2,88.3
							c0.2-0.2,0.3-0.5,0.3-0.9c0-0.4-0.1-0.7-0.3-0.9s-0.5-0.3-0.9-0.3h-0.5v2.4h0.5C64.7,88.6,65,88.5,65.2,88.3z"/>
						<path class="st8" d="M68.1,86.1V87h1.4v0.8h-1.4v0.9h1.5v0.8h-2.5v-4.2h2.5v0.8H68.1z"/>
					</g>
					<rect x="30.2" y="115.2" class="st8" width="40" height="1"/>
				</g>
			</g>
		</g>
	</g>
</g>
</svg>
